<mxfile host="app.diagrams.net" agent="Mozilla/5.0 (Windows NT 10.0; Win64; x64) AppleWebKit/537.36 (KHTML, like Gecko) Chrome/131.0.0.0 Safari/537.36" version="26.0.8">
  <diagram name="Page-1" id="YBMaKFkQQ7TKcBEeIuOE">
    <mxGraphModel dx="748" dy="486" grid="1" gridSize="10" guides="1" tooltips="1" connect="1" arrows="1" fold="1" page="1" pageScale="1" pageWidth="980" pageHeight="1390" math="0" shadow="0">
      <root>
        <mxCell id="0" />
        <mxCell id="1" parent="0" />
        <mxCell id="z40Sl8jCN8guzBENVTES-2" value="&lt;font face=&quot;Times New Roman&quot; style=&quot;font-size: 24px; color: rgb(255, 51, 51);&quot;&gt;&lt;b&gt;About Page&lt;/b&gt;&lt;/font&gt;" style="rounded=0;whiteSpace=wrap;html=1;" vertex="1" parent="1">
          <mxGeometry x="320" y="30" width="340" height="60" as="geometry" />
        </mxCell>
        <mxCell id="z40Sl8jCN8guzBENVTES-3" value="" style="whiteSpace=wrap;html=1;aspect=fixed;" vertex="1" parent="1">
          <mxGeometry x="40" y="152.5" width="45" height="45" as="geometry" />
        </mxCell>
        <mxCell id="z40Sl8jCN8guzBENVTES-4" value="" style="ellipse;whiteSpace=wrap;html=1;aspect=fixed;" vertex="1" parent="1">
          <mxGeometry x="40" y="152.5" width="45" height="45" as="geometry" />
        </mxCell>
        <mxCell id="z40Sl8jCN8guzBENVTES-5" value="" style="endArrow=none;html=1;rounded=0;exitX=0.5;exitY=1;exitDx=0;exitDy=0;entryX=0.5;entryY=0;entryDx=0;entryDy=0;" edge="1" parent="1" source="z40Sl8jCN8guzBENVTES-4" target="z40Sl8jCN8guzBENVTES-4">
          <mxGeometry width="50" height="50" relative="1" as="geometry">
            <mxPoint x="470" y="232.5" as="sourcePoint" />
            <mxPoint x="520" y="182.5" as="targetPoint" />
          </mxGeometry>
        </mxCell>
        <mxCell id="z40Sl8jCN8guzBENVTES-6" value="" style="endArrow=none;html=1;rounded=0;entryX=1;entryY=0;entryDx=0;entryDy=0;" edge="1" parent="1" target="z40Sl8jCN8guzBENVTES-3">
          <mxGeometry width="50" height="50" relative="1" as="geometry">
            <mxPoint x="40" y="197.5" as="sourcePoint" />
            <mxPoint x="71" y="162.5" as="targetPoint" />
          </mxGeometry>
        </mxCell>
        <mxCell id="z40Sl8jCN8guzBENVTES-7" value="" style="endArrow=none;html=1;rounded=0;exitX=1;exitY=1;exitDx=0;exitDy=0;entryX=0;entryY=0;entryDx=0;entryDy=0;" edge="1" parent="1" source="z40Sl8jCN8guzBENVTES-3" target="z40Sl8jCN8guzBENVTES-3">
          <mxGeometry width="50" height="50" relative="1" as="geometry">
            <mxPoint x="81" y="220.5" as="sourcePoint" />
            <mxPoint x="81" y="172.5" as="targetPoint" />
          </mxGeometry>
        </mxCell>
        <mxCell id="z40Sl8jCN8guzBENVTES-8" value="" style="endArrow=none;html=1;rounded=0;exitX=0;exitY=0.5;exitDx=0;exitDy=0;entryX=1;entryY=0.5;entryDx=0;entryDy=0;" edge="1" parent="1" source="z40Sl8jCN8guzBENVTES-4" target="z40Sl8jCN8guzBENVTES-4">
          <mxGeometry width="50" height="50" relative="1" as="geometry">
            <mxPoint x="91" y="230.5" as="sourcePoint" />
            <mxPoint x="91" y="182.5" as="targetPoint" />
          </mxGeometry>
        </mxCell>
        <mxCell id="z40Sl8jCN8guzBENVTES-9" value="&lt;font face=&quot;Times New Roman&quot; style=&quot;font-size: 14px;&quot;&gt;Logo&lt;/font&gt;" style="text;strokeColor=none;fillColor=none;align=left;verticalAlign=middle;spacingLeft=4;spacingRight=4;overflow=hidden;points=[[0,0.5],[1,0.5]];portConstraint=eastwest;rotatable=0;whiteSpace=wrap;html=1;" vertex="1" parent="1">
          <mxGeometry x="40" y="122.5" width="50" height="30" as="geometry" />
        </mxCell>
        <mxCell id="z40Sl8jCN8guzBENVTES-10" value="" style="endArrow=none;html=1;rounded=0;" edge="1" parent="1">
          <mxGeometry width="50" height="50" relative="1" as="geometry">
            <mxPoint x="110" y="174.5" as="sourcePoint" />
            <mxPoint x="170" y="174.5" as="targetPoint" />
          </mxGeometry>
        </mxCell>
        <mxCell id="z40Sl8jCN8guzBENVTES-11" value="" style="endArrow=none;html=1;rounded=0;" edge="1" parent="1">
          <mxGeometry width="50" height="50" relative="1" as="geometry">
            <mxPoint x="110" y="190" as="sourcePoint" />
            <mxPoint x="200" y="190" as="targetPoint" />
          </mxGeometry>
        </mxCell>
        <mxCell id="z40Sl8jCN8guzBENVTES-12" value="" style="endArrow=none;html=1;rounded=0;" edge="1" parent="1">
          <mxGeometry width="50" height="50" relative="1" as="geometry">
            <mxPoint x="480" y="196.5" as="sourcePoint" />
            <mxPoint x="540" y="196.5" as="targetPoint" />
          </mxGeometry>
        </mxCell>
        <mxCell id="z40Sl8jCN8guzBENVTES-13" value="" style="endArrow=none;html=1;rounded=0;" edge="1" parent="1">
          <mxGeometry width="50" height="50" relative="1" as="geometry">
            <mxPoint x="570" y="197.5" as="sourcePoint" />
            <mxPoint x="630" y="197.5" as="targetPoint" />
          </mxGeometry>
        </mxCell>
        <mxCell id="z40Sl8jCN8guzBENVTES-14" value="" style="endArrow=none;html=1;rounded=0;" edge="1" parent="1">
          <mxGeometry width="50" height="50" relative="1" as="geometry">
            <mxPoint x="660" y="197.5" as="sourcePoint" />
            <mxPoint x="720" y="197.5" as="targetPoint" />
          </mxGeometry>
        </mxCell>
        <mxCell id="z40Sl8jCN8guzBENVTES-15" value="" style="endArrow=none;html=1;rounded=0;" edge="1" parent="1">
          <mxGeometry width="50" height="50" relative="1" as="geometry">
            <mxPoint x="750" y="197.5" as="sourcePoint" />
            <mxPoint x="810" y="197.5" as="targetPoint" />
          </mxGeometry>
        </mxCell>
        <mxCell id="z40Sl8jCN8guzBENVTES-16" value="" style="endArrow=none;html=1;rounded=0;" edge="1" parent="1">
          <mxGeometry width="50" height="50" relative="1" as="geometry">
            <mxPoint x="840" y="197.5" as="sourcePoint" />
            <mxPoint x="900" y="197.5" as="targetPoint" />
          </mxGeometry>
        </mxCell>
        <mxCell id="z40Sl8jCN8guzBENVTES-17" value="" style="endArrow=none;html=1;rounded=0;" edge="1" parent="1">
          <mxGeometry width="50" height="50" relative="1" as="geometry">
            <mxPoint x="740" y="160" as="sourcePoint" />
            <mxPoint x="800" y="160" as="targetPoint" />
          </mxGeometry>
        </mxCell>
        <mxCell id="z40Sl8jCN8guzBENVTES-18" value="" style="endArrow=none;html=1;rounded=0;" edge="1" parent="1">
          <mxGeometry width="50" height="50" relative="1" as="geometry">
            <mxPoint x="880" y="160" as="sourcePoint" />
            <mxPoint x="940" y="160" as="targetPoint" />
          </mxGeometry>
        </mxCell>
        <mxCell id="z40Sl8jCN8guzBENVTES-19" value="" style="rounded=0;whiteSpace=wrap;html=1;" vertex="1" parent="1">
          <mxGeometry x="530" y="270" width="420" height="250" as="geometry" />
        </mxCell>
        <mxCell id="z40Sl8jCN8guzBENVTES-20" value="" style="endArrow=none;html=1;rounded=0;entryX=1;entryY=0;entryDx=0;entryDy=0;exitX=0;exitY=1;exitDx=0;exitDy=0;" edge="1" parent="1" source="z40Sl8jCN8guzBENVTES-19" target="z40Sl8jCN8guzBENVTES-19">
          <mxGeometry width="50" height="50" relative="1" as="geometry">
            <mxPoint x="510" y="330" as="sourcePoint" />
            <mxPoint x="560" y="280" as="targetPoint" />
          </mxGeometry>
        </mxCell>
        <mxCell id="z40Sl8jCN8guzBENVTES-21" value="" style="endArrow=none;html=1;rounded=0;entryX=1;entryY=1;entryDx=0;entryDy=0;exitX=0;exitY=0;exitDx=0;exitDy=0;" edge="1" parent="1" source="z40Sl8jCN8guzBENVTES-19" target="z40Sl8jCN8guzBENVTES-19">
          <mxGeometry width="50" height="50" relative="1" as="geometry">
            <mxPoint x="520" y="340" as="sourcePoint" />
            <mxPoint x="640" y="280" as="targetPoint" />
          </mxGeometry>
        </mxCell>
        <mxCell id="z40Sl8jCN8guzBENVTES-22" value="" style="rounded=0;whiteSpace=wrap;html=1;" vertex="1" parent="1">
          <mxGeometry x="840" y="140" width="30" height="20" as="geometry" />
        </mxCell>
        <mxCell id="z40Sl8jCN8guzBENVTES-23" value="" style="endArrow=none;html=1;rounded=0;entryX=1;entryY=0;entryDx=0;entryDy=0;exitX=0;exitY=1;exitDx=0;exitDy=0;" edge="1" parent="1" source="z40Sl8jCN8guzBENVTES-22" target="z40Sl8jCN8guzBENVTES-22">
          <mxGeometry width="50" height="50" relative="1" as="geometry">
            <mxPoint x="580" y="190" as="sourcePoint" />
            <mxPoint x="630" y="140" as="targetPoint" />
          </mxGeometry>
        </mxCell>
        <mxCell id="z40Sl8jCN8guzBENVTES-24" value="" style="endArrow=none;html=1;rounded=0;entryX=1;entryY=1;entryDx=0;entryDy=0;exitX=0;exitY=0;exitDx=0;exitDy=0;" edge="1" parent="1" source="z40Sl8jCN8guzBENVTES-22" target="z40Sl8jCN8guzBENVTES-22">
          <mxGeometry width="50" height="50" relative="1" as="geometry">
            <mxPoint x="590" y="200" as="sourcePoint" />
            <mxPoint x="710" y="140" as="targetPoint" />
          </mxGeometry>
        </mxCell>
        <mxCell id="z40Sl8jCN8guzBENVTES-25" value="" style="rounded=0;whiteSpace=wrap;html=1;" vertex="1" parent="1">
          <mxGeometry x="700" y="140" width="30" height="20" as="geometry" />
        </mxCell>
        <mxCell id="z40Sl8jCN8guzBENVTES-26" value="" style="endArrow=none;html=1;rounded=0;entryX=1;entryY=0;entryDx=0;entryDy=0;exitX=0;exitY=1;exitDx=0;exitDy=0;" edge="1" parent="1" source="z40Sl8jCN8guzBENVTES-25" target="z40Sl8jCN8guzBENVTES-25">
          <mxGeometry width="50" height="50" relative="1" as="geometry">
            <mxPoint x="440" y="190" as="sourcePoint" />
            <mxPoint x="490" y="140" as="targetPoint" />
          </mxGeometry>
        </mxCell>
        <mxCell id="z40Sl8jCN8guzBENVTES-27" value="" style="endArrow=none;html=1;rounded=0;entryX=1;entryY=1;entryDx=0;entryDy=0;exitX=0;exitY=0;exitDx=0;exitDy=0;" edge="1" parent="1" source="z40Sl8jCN8guzBENVTES-25" target="z40Sl8jCN8guzBENVTES-25">
          <mxGeometry width="50" height="50" relative="1" as="geometry">
            <mxPoint x="450" y="200" as="sourcePoint" />
            <mxPoint x="570" y="140" as="targetPoint" />
          </mxGeometry>
        </mxCell>
        <mxCell id="z40Sl8jCN8guzBENVTES-28" value="&lt;blockquote style=&quot;margin: 0 0 0 40px; border: none; padding: 0px;&quot;&gt;&lt;font style=&quot;font-size: 14px;&quot; face=&quot;Times New Roman&quot;&gt;Content + detail&lt;/font&gt;&lt;/blockquote&gt;&lt;blockquote style=&quot;margin: 0 0 0 40px; border: none; padding: 0px;&quot;&gt;&lt;font face=&quot;Times New Roman&quot;&gt;&lt;br&gt;&lt;/font&gt;&lt;/blockquote&gt;" style="text;html=1;align=center;verticalAlign=middle;whiteSpace=wrap;rounded=0;" vertex="1" parent="1">
          <mxGeometry y="280" width="90" height="30" as="geometry" />
        </mxCell>
        <mxCell id="z40Sl8jCN8guzBENVTES-30" value="&lt;font face=&quot;Times New Roman&quot;&gt;Login&lt;/font&gt;" style="text;strokeColor=none;fillColor=none;align=left;verticalAlign=middle;spacingLeft=4;spacingRight=4;overflow=hidden;points=[[0,0.5],[1,0.5]];portConstraint=eastwest;rotatable=0;whiteSpace=wrap;html=1;" vertex="1" parent="1">
          <mxGeometry x="720" y="92.5" width="80" height="30" as="geometry" />
        </mxCell>
        <mxCell id="z40Sl8jCN8guzBENVTES-31" value="&lt;font face=&quot;Times New Roman&quot;&gt;Cart&lt;/font&gt;" style="text;strokeColor=none;fillColor=none;align=left;verticalAlign=middle;spacingLeft=4;spacingRight=4;overflow=hidden;points=[[0,0.5],[1,0.5]];portConstraint=eastwest;rotatable=0;whiteSpace=wrap;html=1;" vertex="1" parent="1">
          <mxGeometry x="870" y="90" width="80" height="30" as="geometry" />
        </mxCell>
        <mxCell id="z40Sl8jCN8guzBENVTES-32" value="" style="endArrow=classic;html=1;rounded=0;exitX=0.39;exitY=0.981;exitDx=0;exitDy=0;exitPerimeter=0;" edge="1" parent="1" source="z40Sl8jCN8guzBENVTES-30">
          <mxGeometry width="50" height="50" relative="1" as="geometry">
            <mxPoint x="770" y="250" as="sourcePoint" />
            <mxPoint x="750" y="150" as="targetPoint" />
          </mxGeometry>
        </mxCell>
        <mxCell id="z40Sl8jCN8guzBENVTES-33" value="" style="endArrow=classic;html=1;rounded=0;exitX=0.274;exitY=1.083;exitDx=0;exitDy=0;exitPerimeter=0;" edge="1" parent="1" source="z40Sl8jCN8guzBENVTES-31">
          <mxGeometry width="50" height="50" relative="1" as="geometry">
            <mxPoint x="770" y="250" as="sourcePoint" />
            <mxPoint x="900" y="150" as="targetPoint" />
          </mxGeometry>
        </mxCell>
        <mxCell id="z40Sl8jCN8guzBENVTES-34" value="&lt;font face=&quot;Times New Roman&quot;&gt;navigation&lt;/font&gt;" style="text;strokeColor=none;fillColor=none;align=left;verticalAlign=middle;spacingLeft=4;spacingRight=4;overflow=hidden;points=[[0,0.5],[1,0.5]];portConstraint=eastwest;rotatable=0;whiteSpace=wrap;html=1;" vertex="1" parent="1">
          <mxGeometry x="380" y="152.5" width="80" height="30" as="geometry" />
        </mxCell>
        <mxCell id="z40Sl8jCN8guzBENVTES-35" value="" style="endArrow=classic;html=1;rounded=0;exitX=1;exitY=0.5;exitDx=0;exitDy=0;" edge="1" parent="1" source="z40Sl8jCN8guzBENVTES-34">
          <mxGeometry width="50" height="50" relative="1" as="geometry">
            <mxPoint x="770" y="250" as="sourcePoint" />
            <mxPoint x="530" y="180" as="targetPoint" />
          </mxGeometry>
        </mxCell>
        <mxCell id="z40Sl8jCN8guzBENVTES-79" value="" style="rounded=0;whiteSpace=wrap;html=1;" vertex="1" parent="1">
          <mxGeometry x="30" y="1300" width="920" height="60" as="geometry" />
        </mxCell>
        <mxCell id="z40Sl8jCN8guzBENVTES-80" value="&lt;font face=&quot;Times New Roman&quot; style=&quot;font-size: 18px;&quot;&gt;Footer&lt;/font&gt;" style="text;strokeColor=none;fillColor=none;align=left;verticalAlign=middle;spacingLeft=4;spacingRight=4;overflow=hidden;points=[[0,0.5],[1,0.5]];portConstraint=eastwest;rotatable=0;whiteSpace=wrap;html=1;" vertex="1" parent="1">
          <mxGeometry x="420" y="1315" width="70" height="30" as="geometry" />
        </mxCell>
        <mxCell id="z40Sl8jCN8guzBENVTES-81" value="Social Media" style="text;strokeColor=none;fillColor=none;align=left;verticalAlign=middle;spacingLeft=4;spacingRight=4;overflow=hidden;points=[[0,0.5],[1,0.5]];portConstraint=eastwest;rotatable=0;whiteSpace=wrap;html=1;" vertex="1" parent="1">
          <mxGeometry x="740" y="1260" width="50" height="30" as="geometry" />
        </mxCell>
        <mxCell id="z40Sl8jCN8guzBENVTES-82" value="" style="endArrow=classic;html=1;rounded=0;entryX=0.75;entryY=0;entryDx=0;entryDy=0;" edge="1" parent="1" target="z40Sl8jCN8guzBENVTES-79">
          <mxGeometry width="50" height="50" relative="1" as="geometry">
            <mxPoint x="730" y="1280" as="sourcePoint" />
            <mxPoint x="420" y="1280" as="targetPoint" />
          </mxGeometry>
        </mxCell>
        <mxCell id="z40Sl8jCN8guzBENVTES-90" value="" style="endArrow=none;html=1;rounded=0;strokeColor=#FF5829;" edge="1" parent="1">
          <mxGeometry width="50" height="50" relative="1" as="geometry">
            <mxPoint x="110" y="320" as="sourcePoint" />
            <mxPoint x="270" y="320" as="targetPoint" />
          </mxGeometry>
        </mxCell>
        <mxCell id="z40Sl8jCN8guzBENVTES-91" value="" style="endArrow=none;html=1;rounded=0;" edge="1" parent="1">
          <mxGeometry width="50" height="50" relative="1" as="geometry">
            <mxPoint x="60" y="350" as="sourcePoint" />
            <mxPoint x="390" y="350" as="targetPoint" />
          </mxGeometry>
        </mxCell>
        <mxCell id="z40Sl8jCN8guzBENVTES-92" value="" style="endArrow=none;html=1;rounded=0;" edge="1" parent="1">
          <mxGeometry width="50" height="50" relative="1" as="geometry">
            <mxPoint x="60" y="360.5" as="sourcePoint" />
            <mxPoint x="390" y="361" as="targetPoint" />
          </mxGeometry>
        </mxCell>
        <mxCell id="z40Sl8jCN8guzBENVTES-93" value="" style="endArrow=none;html=1;rounded=0;" edge="1" parent="1">
          <mxGeometry width="50" height="50" relative="1" as="geometry">
            <mxPoint x="60" y="370.5" as="sourcePoint" />
            <mxPoint x="390" y="371" as="targetPoint" />
          </mxGeometry>
        </mxCell>
        <mxCell id="z40Sl8jCN8guzBENVTES-94" value="" style="endArrow=none;html=1;rounded=0;" edge="1" parent="1">
          <mxGeometry width="50" height="50" relative="1" as="geometry">
            <mxPoint x="60" y="380" as="sourcePoint" />
            <mxPoint x="390" y="380" as="targetPoint" />
          </mxGeometry>
        </mxCell>
        <mxCell id="z40Sl8jCN8guzBENVTES-95" value="" style="endArrow=none;html=1;rounded=0;" edge="1" parent="1">
          <mxGeometry width="50" height="50" relative="1" as="geometry">
            <mxPoint x="60" y="390.5" as="sourcePoint" />
            <mxPoint x="390" y="391" as="targetPoint" />
          </mxGeometry>
        </mxCell>
        <mxCell id="z40Sl8jCN8guzBENVTES-96" value="" style="endArrow=none;html=1;rounded=0;" edge="1" parent="1">
          <mxGeometry width="50" height="50" relative="1" as="geometry">
            <mxPoint x="60" y="400.5" as="sourcePoint" />
            <mxPoint x="390" y="401" as="targetPoint" />
          </mxGeometry>
        </mxCell>
        <mxCell id="z40Sl8jCN8guzBENVTES-97" value="" style="endArrow=none;html=1;rounded=0;" edge="1" parent="1">
          <mxGeometry width="50" height="50" relative="1" as="geometry">
            <mxPoint x="60" y="410" as="sourcePoint" />
            <mxPoint x="390" y="410" as="targetPoint" />
          </mxGeometry>
        </mxCell>
        <mxCell id="z40Sl8jCN8guzBENVTES-98" value="" style="endArrow=none;html=1;rounded=0;" edge="1" parent="1">
          <mxGeometry width="50" height="50" relative="1" as="geometry">
            <mxPoint x="60" y="420.5" as="sourcePoint" />
            <mxPoint x="390" y="421" as="targetPoint" />
          </mxGeometry>
        </mxCell>
        <mxCell id="z40Sl8jCN8guzBENVTES-99" value="" style="endArrow=none;html=1;rounded=0;" edge="1" parent="1">
          <mxGeometry width="50" height="50" relative="1" as="geometry">
            <mxPoint x="60" y="430.5" as="sourcePoint" />
            <mxPoint x="390" y="431" as="targetPoint" />
          </mxGeometry>
        </mxCell>
        <mxCell id="z40Sl8jCN8guzBENVTES-100" value="" style="endArrow=none;html=1;rounded=0;" edge="1" parent="1">
          <mxGeometry width="50" height="50" relative="1" as="geometry">
            <mxPoint x="60" y="440" as="sourcePoint" />
            <mxPoint x="390" y="440" as="targetPoint" />
          </mxGeometry>
        </mxCell>
        <mxCell id="z40Sl8jCN8guzBENVTES-101" value="" style="endArrow=none;html=1;rounded=0;" edge="1" parent="1">
          <mxGeometry width="50" height="50" relative="1" as="geometry">
            <mxPoint x="60" y="450.5" as="sourcePoint" />
            <mxPoint x="390" y="451" as="targetPoint" />
          </mxGeometry>
        </mxCell>
        <mxCell id="z40Sl8jCN8guzBENVTES-102" value="" style="endArrow=none;html=1;rounded=0;" edge="1" parent="1">
          <mxGeometry width="50" height="50" relative="1" as="geometry">
            <mxPoint x="60" y="460.5" as="sourcePoint" />
            <mxPoint x="390" y="461" as="targetPoint" />
          </mxGeometry>
        </mxCell>
        <mxCell id="z40Sl8jCN8guzBENVTES-103" value="" style="endArrow=classic;html=1;rounded=0;exitX=0.68;exitY=0.998;exitDx=0;exitDy=0;exitPerimeter=0;" edge="1" parent="1" source="z40Sl8jCN8guzBENVTES-28">
          <mxGeometry width="50" height="50" relative="1" as="geometry">
            <mxPoint x="37.5" y="330" as="sourcePoint" />
            <mxPoint x="80" y="340" as="targetPoint" />
          </mxGeometry>
        </mxCell>
        <mxCell id="z40Sl8jCN8guzBENVTES-104" value="" style="rounded=0;whiteSpace=wrap;html=1;" vertex="1" parent="1">
          <mxGeometry x="50" y="520" width="420" height="250" as="geometry" />
        </mxCell>
        <mxCell id="z40Sl8jCN8guzBENVTES-105" value="" style="endArrow=none;html=1;rounded=0;entryX=1;entryY=0;entryDx=0;entryDy=0;exitX=0;exitY=1;exitDx=0;exitDy=0;" edge="1" parent="1" source="z40Sl8jCN8guzBENVTES-104" target="z40Sl8jCN8guzBENVTES-104">
          <mxGeometry width="50" height="50" relative="1" as="geometry">
            <mxPoint x="30" y="580" as="sourcePoint" />
            <mxPoint x="80" y="530" as="targetPoint" />
          </mxGeometry>
        </mxCell>
        <mxCell id="z40Sl8jCN8guzBENVTES-106" value="" style="endArrow=none;html=1;rounded=0;entryX=1;entryY=1;entryDx=0;entryDy=0;exitX=0;exitY=0;exitDx=0;exitDy=0;" edge="1" parent="1" source="z40Sl8jCN8guzBENVTES-104" target="z40Sl8jCN8guzBENVTES-104">
          <mxGeometry width="50" height="50" relative="1" as="geometry">
            <mxPoint x="40" y="590" as="sourcePoint" />
            <mxPoint x="160" y="530" as="targetPoint" />
          </mxGeometry>
        </mxCell>
        <mxCell id="z40Sl8jCN8guzBENVTES-108" value="" style="rounded=0;whiteSpace=wrap;html=1;" vertex="1" parent="1">
          <mxGeometry x="530" y="790" width="420" height="250" as="geometry" />
        </mxCell>
        <mxCell id="z40Sl8jCN8guzBENVTES-109" value="" style="endArrow=none;html=1;rounded=0;entryX=1;entryY=0;entryDx=0;entryDy=0;exitX=0;exitY=1;exitDx=0;exitDy=0;" edge="1" parent="1" source="z40Sl8jCN8guzBENVTES-108" target="z40Sl8jCN8guzBENVTES-108">
          <mxGeometry width="50" height="50" relative="1" as="geometry">
            <mxPoint x="510" y="850" as="sourcePoint" />
            <mxPoint x="560" y="800" as="targetPoint" />
          </mxGeometry>
        </mxCell>
        <mxCell id="z40Sl8jCN8guzBENVTES-110" value="" style="endArrow=none;html=1;rounded=0;entryX=1;entryY=1;entryDx=0;entryDy=0;exitX=0;exitY=0;exitDx=0;exitDy=0;" edge="1" parent="1" source="z40Sl8jCN8guzBENVTES-108" target="z40Sl8jCN8guzBENVTES-108">
          <mxGeometry width="50" height="50" relative="1" as="geometry">
            <mxPoint x="520" y="860" as="sourcePoint" />
            <mxPoint x="640" y="800" as="targetPoint" />
          </mxGeometry>
        </mxCell>
        <mxCell id="z40Sl8jCN8guzBENVTES-112" value="" style="endArrow=none;html=1;rounded=0;strokeColor=#FF5829;" edge="1" parent="1">
          <mxGeometry width="50" height="50" relative="1" as="geometry">
            <mxPoint x="610" y="594.25" as="sourcePoint" />
            <mxPoint x="770" y="594.25" as="targetPoint" />
          </mxGeometry>
        </mxCell>
        <mxCell id="z40Sl8jCN8guzBENVTES-113" value="" style="endArrow=none;html=1;rounded=0;" edge="1" parent="1">
          <mxGeometry width="50" height="50" relative="1" as="geometry">
            <mxPoint x="560" y="624.25" as="sourcePoint" />
            <mxPoint x="890" y="624.25" as="targetPoint" />
          </mxGeometry>
        </mxCell>
        <mxCell id="z40Sl8jCN8guzBENVTES-114" value="" style="endArrow=none;html=1;rounded=0;" edge="1" parent="1">
          <mxGeometry width="50" height="50" relative="1" as="geometry">
            <mxPoint x="560" y="634.75" as="sourcePoint" />
            <mxPoint x="890" y="635.25" as="targetPoint" />
          </mxGeometry>
        </mxCell>
        <mxCell id="z40Sl8jCN8guzBENVTES-115" value="" style="endArrow=none;html=1;rounded=0;" edge="1" parent="1">
          <mxGeometry width="50" height="50" relative="1" as="geometry">
            <mxPoint x="560" y="644.75" as="sourcePoint" />
            <mxPoint x="890" y="645.25" as="targetPoint" />
          </mxGeometry>
        </mxCell>
        <mxCell id="z40Sl8jCN8guzBENVTES-116" value="" style="endArrow=none;html=1;rounded=0;" edge="1" parent="1">
          <mxGeometry width="50" height="50" relative="1" as="geometry">
            <mxPoint x="560" y="654.25" as="sourcePoint" />
            <mxPoint x="890" y="654.25" as="targetPoint" />
          </mxGeometry>
        </mxCell>
        <mxCell id="z40Sl8jCN8guzBENVTES-117" value="" style="endArrow=none;html=1;rounded=0;" edge="1" parent="1">
          <mxGeometry width="50" height="50" relative="1" as="geometry">
            <mxPoint x="560" y="664.75" as="sourcePoint" />
            <mxPoint x="890" y="665.25" as="targetPoint" />
          </mxGeometry>
        </mxCell>
        <mxCell id="z40Sl8jCN8guzBENVTES-118" value="" style="endArrow=none;html=1;rounded=0;" edge="1" parent="1">
          <mxGeometry width="50" height="50" relative="1" as="geometry">
            <mxPoint x="560" y="674.75" as="sourcePoint" />
            <mxPoint x="890" y="675.25" as="targetPoint" />
          </mxGeometry>
        </mxCell>
        <mxCell id="z40Sl8jCN8guzBENVTES-119" value="" style="endArrow=none;html=1;rounded=0;" edge="1" parent="1">
          <mxGeometry width="50" height="50" relative="1" as="geometry">
            <mxPoint x="560" y="684.25" as="sourcePoint" />
            <mxPoint x="890" y="684.25" as="targetPoint" />
          </mxGeometry>
        </mxCell>
        <mxCell id="z40Sl8jCN8guzBENVTES-120" value="" style="endArrow=none;html=1;rounded=0;" edge="1" parent="1">
          <mxGeometry width="50" height="50" relative="1" as="geometry">
            <mxPoint x="560" y="694.75" as="sourcePoint" />
            <mxPoint x="890" y="695.25" as="targetPoint" />
          </mxGeometry>
        </mxCell>
        <mxCell id="z40Sl8jCN8guzBENVTES-121" value="" style="endArrow=none;html=1;rounded=0;" edge="1" parent="1">
          <mxGeometry width="50" height="50" relative="1" as="geometry">
            <mxPoint x="560" y="704.75" as="sourcePoint" />
            <mxPoint x="890" y="705.25" as="targetPoint" />
          </mxGeometry>
        </mxCell>
        <mxCell id="z40Sl8jCN8guzBENVTES-122" value="" style="endArrow=none;html=1;rounded=0;" edge="1" parent="1">
          <mxGeometry width="50" height="50" relative="1" as="geometry">
            <mxPoint x="560" y="714.25" as="sourcePoint" />
            <mxPoint x="890" y="714.25" as="targetPoint" />
          </mxGeometry>
        </mxCell>
        <mxCell id="z40Sl8jCN8guzBENVTES-123" value="" style="endArrow=none;html=1;rounded=0;" edge="1" parent="1">
          <mxGeometry width="50" height="50" relative="1" as="geometry">
            <mxPoint x="560" y="724.75" as="sourcePoint" />
            <mxPoint x="890" y="725.25" as="targetPoint" />
          </mxGeometry>
        </mxCell>
        <mxCell id="z40Sl8jCN8guzBENVTES-124" value="" style="endArrow=none;html=1;rounded=0;" edge="1" parent="1">
          <mxGeometry width="50" height="50" relative="1" as="geometry">
            <mxPoint x="560" y="734.75" as="sourcePoint" />
            <mxPoint x="890" y="735.25" as="targetPoint" />
          </mxGeometry>
        </mxCell>
        <mxCell id="z40Sl8jCN8guzBENVTES-127" value="" style="endArrow=none;html=1;rounded=0;strokeColor=#FF5829;" edge="1" parent="1">
          <mxGeometry width="50" height="50" relative="1" as="geometry">
            <mxPoint x="110" y="820" as="sourcePoint" />
            <mxPoint x="270" y="820" as="targetPoint" />
          </mxGeometry>
        </mxCell>
        <mxCell id="z40Sl8jCN8guzBENVTES-128" value="" style="endArrow=none;html=1;rounded=0;" edge="1" parent="1">
          <mxGeometry width="50" height="50" relative="1" as="geometry">
            <mxPoint x="60" y="850" as="sourcePoint" />
            <mxPoint x="390" y="850" as="targetPoint" />
          </mxGeometry>
        </mxCell>
        <mxCell id="z40Sl8jCN8guzBENVTES-129" value="" style="endArrow=none;html=1;rounded=0;" edge="1" parent="1">
          <mxGeometry width="50" height="50" relative="1" as="geometry">
            <mxPoint x="60" y="860.5" as="sourcePoint" />
            <mxPoint x="390" y="861" as="targetPoint" />
          </mxGeometry>
        </mxCell>
        <mxCell id="z40Sl8jCN8guzBENVTES-130" value="" style="endArrow=none;html=1;rounded=0;" edge="1" parent="1">
          <mxGeometry width="50" height="50" relative="1" as="geometry">
            <mxPoint x="60" y="870.5" as="sourcePoint" />
            <mxPoint x="390" y="871" as="targetPoint" />
          </mxGeometry>
        </mxCell>
        <mxCell id="z40Sl8jCN8guzBENVTES-131" value="" style="endArrow=none;html=1;rounded=0;" edge="1" parent="1">
          <mxGeometry width="50" height="50" relative="1" as="geometry">
            <mxPoint x="60" y="880" as="sourcePoint" />
            <mxPoint x="390" y="880" as="targetPoint" />
          </mxGeometry>
        </mxCell>
        <mxCell id="z40Sl8jCN8guzBENVTES-132" value="" style="endArrow=none;html=1;rounded=0;" edge="1" parent="1">
          <mxGeometry width="50" height="50" relative="1" as="geometry">
            <mxPoint x="60" y="890.5" as="sourcePoint" />
            <mxPoint x="390" y="891" as="targetPoint" />
          </mxGeometry>
        </mxCell>
        <mxCell id="z40Sl8jCN8guzBENVTES-133" value="" style="endArrow=none;html=1;rounded=0;" edge="1" parent="1">
          <mxGeometry width="50" height="50" relative="1" as="geometry">
            <mxPoint x="60" y="900.5" as="sourcePoint" />
            <mxPoint x="390" y="901" as="targetPoint" />
          </mxGeometry>
        </mxCell>
        <mxCell id="z40Sl8jCN8guzBENVTES-134" value="" style="endArrow=none;html=1;rounded=0;" edge="1" parent="1">
          <mxGeometry width="50" height="50" relative="1" as="geometry">
            <mxPoint x="60" y="910" as="sourcePoint" />
            <mxPoint x="390" y="910" as="targetPoint" />
          </mxGeometry>
        </mxCell>
        <mxCell id="z40Sl8jCN8guzBENVTES-135" value="" style="endArrow=none;html=1;rounded=0;" edge="1" parent="1">
          <mxGeometry width="50" height="50" relative="1" as="geometry">
            <mxPoint x="60" y="920.5" as="sourcePoint" />
            <mxPoint x="390" y="921" as="targetPoint" />
          </mxGeometry>
        </mxCell>
        <mxCell id="z40Sl8jCN8guzBENVTES-136" value="" style="endArrow=none;html=1;rounded=0;" edge="1" parent="1">
          <mxGeometry width="50" height="50" relative="1" as="geometry">
            <mxPoint x="60" y="930.5" as="sourcePoint" />
            <mxPoint x="390" y="931" as="targetPoint" />
          </mxGeometry>
        </mxCell>
        <mxCell id="z40Sl8jCN8guzBENVTES-137" value="" style="endArrow=none;html=1;rounded=0;" edge="1" parent="1">
          <mxGeometry width="50" height="50" relative="1" as="geometry">
            <mxPoint x="60" y="940" as="sourcePoint" />
            <mxPoint x="390" y="940" as="targetPoint" />
          </mxGeometry>
        </mxCell>
        <mxCell id="z40Sl8jCN8guzBENVTES-138" value="" style="endArrow=none;html=1;rounded=0;" edge="1" parent="1">
          <mxGeometry width="50" height="50" relative="1" as="geometry">
            <mxPoint x="60" y="950.5" as="sourcePoint" />
            <mxPoint x="390" y="951" as="targetPoint" />
          </mxGeometry>
        </mxCell>
        <mxCell id="z40Sl8jCN8guzBENVTES-139" value="" style="endArrow=none;html=1;rounded=0;" edge="1" parent="1">
          <mxGeometry width="50" height="50" relative="1" as="geometry">
            <mxPoint x="60" y="960.5" as="sourcePoint" />
            <mxPoint x="390" y="961" as="targetPoint" />
          </mxGeometry>
        </mxCell>
        <mxCell id="z40Sl8jCN8guzBENVTES-140" value="" style="rounded=0;whiteSpace=wrap;html=1;" vertex="1" parent="1">
          <mxGeometry x="30" y="1060" width="920" height="60" as="geometry" />
        </mxCell>
        <mxCell id="z40Sl8jCN8guzBENVTES-141" value="" style="endArrow=none;html=1;rounded=0;strokeColor=#FF5829;" edge="1" parent="1">
          <mxGeometry width="50" height="50" relative="1" as="geometry">
            <mxPoint x="380" y="1089.5" as="sourcePoint" />
            <mxPoint x="540" y="1089.5" as="targetPoint" />
          </mxGeometry>
        </mxCell>
        <mxCell id="z40Sl8jCN8guzBENVTES-142" value="" style="endArrow=none;html=1;rounded=0;" edge="1" parent="1">
          <mxGeometry width="50" height="50" relative="1" as="geometry">
            <mxPoint x="40" y="1160" as="sourcePoint" />
            <mxPoint x="880" y="1160" as="targetPoint" />
          </mxGeometry>
        </mxCell>
        <mxCell id="z40Sl8jCN8guzBENVTES-144" value="" style="endArrow=none;html=1;rounded=0;" edge="1" parent="1">
          <mxGeometry width="50" height="50" relative="1" as="geometry">
            <mxPoint x="40" y="1180.5" as="sourcePoint" />
            <mxPoint x="880" y="1180" as="targetPoint" />
          </mxGeometry>
        </mxCell>
        <mxCell id="z40Sl8jCN8guzBENVTES-146" value="" style="endArrow=none;html=1;rounded=0;" edge="1" parent="1">
          <mxGeometry width="50" height="50" relative="1" as="geometry">
            <mxPoint x="40" y="1200.5" as="sourcePoint" />
            <mxPoint x="880" y="1200" as="targetPoint" />
          </mxGeometry>
        </mxCell>
        <mxCell id="z40Sl8jCN8guzBENVTES-148" value="" style="endArrow=none;html=1;rounded=0;" edge="1" parent="1">
          <mxGeometry width="50" height="50" relative="1" as="geometry">
            <mxPoint x="40" y="1220" as="sourcePoint" />
            <mxPoint x="880" y="1220" as="targetPoint" />
          </mxGeometry>
        </mxCell>
        <mxCell id="z40Sl8jCN8guzBENVTES-149" value="" style="triangle;whiteSpace=wrap;html=1;" vertex="1" parent="1">
          <mxGeometry x="10" y="1150" width="20" height="10" as="geometry" />
        </mxCell>
        <mxCell id="z40Sl8jCN8guzBENVTES-160" value="" style="triangle;whiteSpace=wrap;html=1;" vertex="1" parent="1">
          <mxGeometry x="10" y="1170" width="20" height="10" as="geometry" />
        </mxCell>
        <mxCell id="z40Sl8jCN8guzBENVTES-161" value="" style="triangle;whiteSpace=wrap;html=1;" vertex="1" parent="1">
          <mxGeometry x="10" y="1190" width="20" height="10" as="geometry" />
        </mxCell>
        <mxCell id="z40Sl8jCN8guzBENVTES-162" value="" style="triangle;whiteSpace=wrap;html=1;" vertex="1" parent="1">
          <mxGeometry x="10" y="1210" width="20" height="10" as="geometry" />
        </mxCell>
      </root>
    </mxGraphModel>
  </diagram>
</mxfile>
